<svg width="1024" height="296" viewBox="0 0 1024 296" fill="none" xmlns="http://www.w3.org/2000/svg">
<path d="M44.1724 205.757V196.497C50.426 196.497 54.7554 196.056 57.1606 195.174C58.283 194.773 59.1249 194.092 59.6861 193.129C60.4878 191.606 60.9288 188.72 61.009 184.471L61.49 173.767C61.5702 171.522 61.6103 167.875 61.6103 162.824V147.069C61.6103 139.934 61.3697 131.275 60.8887 121.093C60.6482 115.962 60.2874 113.075 59.8064 112.434C59.4055 111.712 58.724 111.191 57.7619 110.871C56.2386 110.309 51.7087 109.909 44.1724 109.668V100.408C58.7641 97.9224 68.3449 96.0784 72.9148 94.8758C77.4848 93.6732 82.656 91.749 88.4286 89.1033L91.6756 90.5464V109.909L113.563 92.3503C116.129 91.3081 118.293 90.6266 120.057 90.3059C121.901 89.905 124.347 89.7046 127.393 89.7046C137.014 89.7046 144.27 91.268 149.161 94.3948C154.131 97.4414 158.22 102.613 161.427 109.909L183.315 92.3503C185.88 91.3081 188.045 90.6266 189.809 90.3059C191.653 89.905 194.098 89.7046 197.145 89.7046C205.082 89.7046 211.216 90.7068 215.545 92.7111C219.955 94.6353 223.602 97.281 226.489 100.648C229.375 104.016 231.419 107.624 232.622 111.472C233.825 115.32 234.426 121.253 234.426 129.271C234.426 138.09 234.346 143.942 234.185 146.829C234.105 147.791 234.065 148.953 234.065 150.316V162.824C234.065 175.651 234.266 183.869 234.666 187.477C235.148 191.005 235.909 193.25 236.951 194.212C238.074 195.094 240.479 195.655 244.167 195.895C245.45 195.976 247.695 196.176 250.902 196.497V205.757C239.918 205.115 230.858 204.795 223.723 204.795C215.625 204.795 208.73 205.115 203.038 205.757L201.354 203.472L202.797 181.705C203.118 172.885 203.278 165.309 203.278 158.975V149.835C203.278 135.564 202.637 126.585 201.354 122.897C200.071 119.129 197.907 116.202 194.86 114.118C191.894 111.953 188.125 110.871 183.555 110.871C178.424 110.871 174.055 112.193 170.447 114.839C166.839 117.405 164.594 119.77 163.712 121.935C162.91 124.019 162.55 128.268 162.63 134.682V163.786L162.87 175.812L163.111 185.553C163.191 188.519 163.472 190.564 163.953 191.686C164.434 192.809 165.115 193.651 165.997 194.212C166.719 194.613 168.242 194.973 170.567 195.294C175.137 195.855 178.424 196.256 180.429 196.497V205.757C173.293 205.436 163.031 205.276 149.642 205.276C134.729 205.276 123.705 205.436 116.57 205.757V196.497C118.093 196.256 120.057 196.016 122.463 195.775C125.99 195.535 128.195 195.134 129.077 194.573C130.039 193.931 130.801 192.729 131.362 190.965C131.923 189.121 132.204 184.912 132.204 178.337L132.444 157.051V139.974C132.444 131.796 131.923 126.024 130.881 122.656C129.919 119.209 127.874 116.363 124.748 114.118C121.701 111.793 117.732 110.63 112.842 110.63C107.47 110.63 102.94 111.993 99.2521 114.719C95.5641 117.445 93.239 120.171 92.2769 122.897C91.7959 124.42 91.5955 130.714 91.6756 141.778V162.824C91.6756 173.647 91.9162 181.945 92.3972 187.718C92.5575 190.764 92.9584 192.688 93.5998 193.49C94.2412 194.292 95.3236 194.893 96.8469 195.294C97.9693 195.615 101.697 196.016 108.031 196.497V205.757C99.3724 205.436 88.9497 205.276 76.7632 205.276C63.0534 205.276 52.1898 205.436 44.1724 205.757Z" fill="white"/>
<path d="M278.421 216.936C278.421 221.741 274.525 225.637 269.72 225.637C264.915 225.637 261.02 221.741 261.02 216.936C261.02 212.131 264.915 208.235 269.72 208.235C274.525 208.235 278.421 212.131 278.421 216.936Z" fill="#00C8FF"/>
<path d="M265.662 230.919C266.873 231.767 267.169 233.438 266.299 234.634C244.594 264.465 212.453 285.089 176.219 292.362C139.109 299.811 100.556 292.683 68.5628 272.458C36.5695 252.233 13.5937 220.464 4.40485 183.746C-4.78398 147.028 0.520024 108.182 19.2158 75.2711C37.9116 42.3606 68.5631 17.9137 104.807 7.00545C141.052 -3.90283 180.104 -0.43462 213.859 16.6901C247.614 33.8148 273.477 63.2807 286.081 98.9708C298.387 133.819 297.129 171.987 282.62 205.905C282.038 207.265 280.451 207.867 279.102 207.26L270.556 203.419C269.207 202.813 268.608 201.229 269.187 199.869C282.146 169.403 283.243 135.152 272.197 103.874C260.854 71.7526 237.577 45.2334 207.197 29.8211C176.818 14.4088 141.671 11.2875 109.051 21.1049C76.4309 30.9224 48.8446 52.9245 32.0184 82.544C15.1922 112.163 10.4186 147.125 18.6885 180.171C26.9585 213.217 47.6367 241.809 76.4307 260.012C105.225 278.215 139.923 284.63 173.322 277.926C205.845 271.398 234.703 252.918 254.236 226.187C255.108 224.993 256.776 224.697 257.987 225.545L265.662 230.919Z" fill="white"/>
<path d="M350.703 220.643V209.571C358.18 209.571 363.357 209.044 366.233 207.99C367.575 207.51 368.581 206.695 369.252 205.545C370.211 203.724 370.738 200.273 370.834 195.192L371.409 182.395C371.505 179.711 371.553 175.349 371.553 169.31V150.473C371.553 141.942 371.265 131.589 370.69 119.414C370.402 113.279 369.971 109.828 369.396 109.061C368.917 108.199 368.102 107.576 366.951 107.192C365.13 106.521 359.714 106.042 350.703 105.754V94.6823C368.15 91.7107 379.605 89.5059 385.069 88.068C390.533 86.63 396.716 84.3294 403.618 81.166L407.501 82.8915V106.042L433.67 85.0483C436.738 83.8022 439.326 82.9873 441.435 82.6039C443.64 82.1246 446.564 81.8849 450.206 81.8849C461.71 81.8849 470.385 83.7542 476.233 87.4928C482.176 91.1355 487.065 97.3185 490.899 106.042L517.069 85.0483C520.137 83.8022 522.725 82.9873 524.834 82.6039C527.039 82.1246 529.962 81.8849 533.605 81.8849C543.095 81.8849 550.429 83.0832 555.605 85.4797C560.877 87.7804 565.239 90.9438 568.69 94.9699C572.141 98.9961 574.585 103.31 576.023 107.911C577.461 112.512 578.18 119.606 578.18 129.192C578.18 139.737 578.084 146.735 577.893 150.186C577.797 151.336 577.749 152.726 577.749 154.356V169.31C577.749 184.647 577.989 194.473 578.468 198.787C579.043 203.005 579.954 205.689 581.2 206.839C582.542 207.894 585.418 208.565 589.827 208.852C591.361 208.948 594.045 209.188 597.88 209.571V220.643C584.747 219.876 573.914 219.493 565.383 219.493C555.701 219.493 547.457 219.876 540.651 220.643L538.638 217.911L540.363 191.885C540.747 181.34 540.938 172.281 540.938 164.708V153.78C540.938 136.717 540.172 125.981 538.638 121.571C537.104 117.066 534.516 113.567 530.873 111.074C527.326 108.486 522.821 107.192 517.357 107.192C511.222 107.192 505.997 108.774 501.684 111.937C497.37 115.005 494.686 117.833 493.631 120.421C492.673 122.913 492.241 127.994 492.337 135.663V170.46L492.625 184.839L492.912 196.486C493.008 200.033 493.344 202.478 493.919 203.82C494.494 205.162 495.309 206.168 496.363 206.839C497.226 207.319 499.047 207.75 501.827 208.133C507.291 208.804 511.222 209.284 513.618 209.571V220.643C505.087 220.26 492.816 220.068 476.808 220.068C458.978 220.068 445.797 220.26 437.265 220.643V209.571C439.087 209.284 441.435 208.996 444.311 208.708C448.529 208.421 451.165 207.942 452.219 207.271C453.37 206.504 454.28 205.066 454.951 202.957C455.623 200.752 455.958 195.719 455.958 187.859L456.246 162.408V141.99C456.246 132.212 455.623 125.31 454.376 121.284C453.226 117.162 450.782 113.759 447.043 111.074C443.4 108.295 438.655 106.905 432.808 106.905C426.385 106.905 420.969 108.534 416.559 111.793C412.15 115.053 409.37 118.312 408.219 121.571C407.644 123.393 407.405 130.918 407.501 144.146V169.31C407.501 182.251 407.788 192.173 408.363 199.074C408.555 202.717 409.034 205.018 409.801 205.976C410.568 206.935 411.862 207.654 413.684 208.133C415.026 208.517 419.483 208.996 427.056 209.571V220.643C416.703 220.26 404.241 220.068 389.67 220.068C373.278 220.068 360.289 220.26 350.703 220.643Z" fill="white"/>
<path d="M744.259 209.859V220.643C733.235 220.164 723.457 219.924 714.925 219.924C706.873 219.924 699.06 220.164 691.487 220.643L690.193 219.061L691.487 200.225C688.036 202.43 677.875 210.003 661.004 222.944C656.69 223.902 652.568 224.382 648.638 224.382C638.189 224.382 629.993 221.314 624.05 215.179C618.202 209.044 615.278 200.225 615.278 188.722C615.278 180.957 616.572 174.582 619.161 169.597C621.845 164.613 624.673 160.97 627.644 158.669C630.712 156.273 635.409 153.972 641.736 151.767C656.882 146.399 673.466 142.181 691.487 139.114C691.679 127.706 689.331 119.031 684.442 113.088C679.457 107.144 671.884 104.173 661.723 104.173C657.601 104.173 653.67 104.7 649.932 105.754C648.302 106.234 646.385 107.192 644.18 108.63L638.141 123.153L628.363 120.996L629.226 102.447C636.32 97.654 643.078 93.4841 649.501 89.9372C655.923 86.3904 660.429 84.2335 663.017 83.4666C666.564 82.4122 671.548 81.8849 677.971 81.8849C688.42 81.8849 696.999 83.4187 703.71 86.4863C710.516 89.4579 715.501 93.0048 718.664 97.1268C721.923 101.249 724.128 105.658 725.278 110.356C726.524 115.053 727.148 120.996 727.148 128.186C727.148 131.253 726.908 139.257 726.429 152.199C726.141 160.826 725.997 167.872 725.997 173.336C725.997 190.399 726.477 200.752 727.435 204.395C727.819 206.12 728.585 207.271 729.736 207.846C731.27 208.613 736.111 209.284 744.259 209.859ZM691.487 151.192C683.339 152.918 675.862 155.027 669.056 157.519C662.346 159.915 657.697 162.935 655.108 166.578C652.52 170.125 651.226 174.63 651.226 180.094C651.226 186.229 652.76 190.974 655.827 194.329C658.991 197.685 663.113 199.362 668.193 199.362C672.507 199.362 676.821 198.116 681.135 195.624C685.544 193.131 688.995 189.968 691.487 186.133V151.192Z" fill="white"/>
<path d="M840.455 209.14V220.643C828.472 219.876 815.962 219.493 802.925 219.493C789.888 219.493 775.222 219.876 758.925 220.643V209.284C768.032 208.996 773.544 208.613 775.461 208.133C776.899 207.75 777.954 207.223 778.625 206.552C779.392 205.785 779.919 204.634 780.206 203.101C780.877 200.225 781.357 191.166 781.644 175.924C781.932 160.682 782.076 147.166 782.076 135.375V87.9242C782.076 72.8741 781.74 59.1181 781.069 46.6562C780.686 39.9459 780.206 35.9677 779.631 34.7215C779.248 34.0505 778.721 33.5233 778.05 33.1398C776.899 32.373 775.078 31.7978 772.585 31.4144C771.148 31.2226 766.834 30.983 759.644 30.6954V20.0549C771.531 18.8087 781.021 17.4666 788.115 16.0287C795.209 14.495 804.747 11.8588 816.729 8.12024L819.749 9.84573L818.599 38.8915C818.119 55.1878 817.832 75.1747 817.736 98.8523V135.663C817.736 149.563 817.832 159.963 818.023 166.865C818.407 184.024 818.694 194.425 818.886 198.068C819.078 201.615 819.413 203.868 819.893 204.826C820.18 205.497 820.66 206.072 821.331 206.552C822.193 207.223 823.679 207.75 825.788 208.133C826.651 208.325 831.54 208.661 840.455 209.14Z" fill="white"/>
<path d="M856.703 105.323V94.3948C864.947 93.9154 873.239 92.8131 881.579 91.0876C889.919 89.3621 900.607 86.2945 913.644 81.8849L915.657 83.4666C914.315 102.447 913.644 119.99 913.644 136.094V152.199C913.644 165.907 913.98 175.061 914.651 179.663C915.609 185.702 917.91 190.255 921.553 193.323C925.196 196.39 930.036 197.924 936.076 197.924C942.978 197.924 948.777 196.151 953.474 192.604C958.172 188.961 961.431 185.223 963.252 181.388C964.402 178.896 964.978 173.719 964.978 165.859V141.271L964.69 120.852C964.69 114.238 964.259 110.26 963.396 108.918C962.917 108.055 961.958 107.384 960.52 106.905C959.082 106.425 953.235 105.898 942.978 105.323V94.3948C957.836 92.4775 967.949 90.9438 973.318 89.7934C978.686 88.6431 987.792 86.007 1000.64 81.8849L1003.37 83.4666L1001.79 109.924C1001.02 128.713 1000.64 139.21 1000.64 141.414V170.891C1000.64 188.434 1001.07 199.266 1001.93 203.388C1002.32 205.114 1003.03 206.312 1004.09 206.983C1005.91 207.942 1011.81 208.661 1021.78 209.14V220.643L992.154 219.924L964.978 220.643L963.971 219.493L964.834 208.421C964.93 206.6 964.978 202.909 964.978 197.349C961.239 200.321 957.98 203.053 955.2 205.545L938.952 220.931C932.337 223.327 925.675 224.525 918.965 224.525C906.023 224.525 895.862 220.979 888.481 213.885C881.1 206.791 877.409 197.349 877.409 185.558C877.409 184.12 877.553 178.8 877.84 169.597C877.936 164.708 877.984 158.382 877.984 150.617L877.697 120.277C877.697 114.717 877.313 111.266 876.546 109.924C875.875 108.582 874.725 107.576 873.095 106.905C871.466 106.234 866.002 105.706 856.703 105.323Z" fill="white"/>
<path d="M383.027 286.902H357.391V241.027H383.027V246.103H363.173V260.431H381.87V265.442H363.173V281.826H383.027V286.902Z" fill="white"/>
<path d="M482.144 286.902H475.398L450.854 248.801H450.597C450.64 249.572 450.683 250.429 450.726 251.371C450.811 252.313 450.876 253.341 450.918 254.455C450.961 255.526 451.004 256.64 451.047 257.796C451.09 258.953 451.111 260.109 451.111 261.266V286.902H445.778V241.027H452.46L476.94 278.999H477.197C477.154 278.485 477.111 277.778 477.069 276.879C477.026 275.936 476.983 274.908 476.94 273.795C476.897 272.638 476.854 271.46 476.812 270.261C476.769 269.062 476.747 267.948 476.747 266.92V241.027H482.144V286.902Z" fill="white"/>
<path d="M578.442 286.902H571.888L559.745 266.984L547.408 286.902H541.305L556.532 263.001L542.268 241.027H548.693L559.937 259.017L571.246 241.027H577.349L563.15 262.872L578.442 286.902Z" fill="white"/>
<path d="M676.386 263.9C676.386 267.455 675.936 270.689 675.037 273.602C674.137 276.472 672.788 278.956 670.989 281.055C669.233 283.154 667.027 284.76 664.371 285.874C661.758 286.988 658.717 287.544 655.248 287.544C651.65 287.544 648.523 286.988 645.867 285.874C643.211 284.717 641.005 283.111 639.249 281.055C637.493 278.956 636.187 276.45 635.33 273.538C634.473 270.625 634.045 267.391 634.045 263.836C634.045 259.124 634.816 255.012 636.358 251.5C637.9 247.987 640.234 245.246 643.361 243.275C646.531 241.305 650.514 240.32 655.312 240.32C659.895 240.32 663.75 241.305 666.877 243.275C670.004 245.203 672.36 247.944 673.945 251.5C675.572 255.012 676.386 259.145 676.386 263.9ZM640.149 263.9C640.149 267.755 640.684 271.075 641.755 273.859C642.826 276.643 644.475 278.785 646.702 280.284C648.972 281.783 651.821 282.533 655.248 282.533C658.717 282.533 661.544 281.783 663.729 280.284C665.956 278.785 667.605 276.643 668.676 273.859C669.747 271.075 670.282 267.755 670.282 263.9C670.282 258.117 669.083 253.598 666.684 250.343C664.286 247.045 660.495 245.396 655.312 245.396C651.842 245.396 648.972 246.145 646.702 247.645C644.475 249.101 642.826 251.221 641.755 254.005C640.684 256.747 640.149 260.045 640.149 263.9Z" fill="white"/>
<path d="M770.931 241.027L754.547 286.902H748.764L732.38 241.027H738.42L748.764 270.454C749.235 271.696 749.642 272.895 749.985 274.052C750.327 275.208 750.627 276.322 750.884 277.393C751.184 278.421 751.441 279.449 751.655 280.477C751.869 279.449 752.105 278.399 752.362 277.329C752.662 276.258 752.983 275.144 753.326 273.987C753.711 272.831 754.118 271.61 754.547 270.325L764.827 241.027H770.931Z" fill="white"/>
<path d="M856.035 286.902L850.51 272.702H832.327L826.866 286.902H821.019L838.945 240.834H844.149L862.011 286.902H856.035ZM843.635 253.684C843.506 253.341 843.292 252.72 842.993 251.821C842.693 250.921 842.393 250 842.093 249.058C841.836 248.073 841.622 247.323 841.45 246.809C841.236 247.666 841.001 248.544 840.744 249.444C840.53 250.3 840.294 251.093 840.037 251.821C839.823 252.549 839.63 253.17 839.459 253.684L834.254 267.562H848.775L843.635 253.684Z" fill="white"/>
<path d="M933.887 286.902H917.31V283.561L922.707 282.34V245.653L917.31 244.368V241.027H933.887V244.368L928.489 245.653V282.34L933.887 283.561V286.902Z" fill="white"/>
<path d="M1021.45 274.63C1021.45 277.371 1020.79 279.706 1019.46 281.633C1018.13 283.518 1016.23 284.974 1013.74 286.002C1011.3 287.03 1008.41 287.544 1005.07 287.544C1003.35 287.544 1001.71 287.459 1000.12 287.287C998.579 287.116 997.165 286.88 995.88 286.581C994.595 286.238 993.46 285.831 992.475 285.36V279.834C994.017 280.52 995.923 281.141 998.193 281.698C1000.51 282.254 1002.88 282.533 1005.33 282.533C1007.6 282.533 1009.5 282.233 1011.04 281.633C1012.59 281.034 1013.74 280.177 1014.51 279.063C1015.28 277.95 1015.67 276.643 1015.67 275.144C1015.67 273.645 1015.35 272.381 1014.71 271.353C1014.06 270.325 1012.95 269.383 1011.36 268.526C1009.82 267.627 1007.66 266.684 1004.88 265.699C1002.91 264.971 1001.17 264.2 999.671 263.386C998.215 262.529 996.994 261.566 996.009 260.495C995.024 259.424 994.274 258.203 993.76 256.832C993.289 255.462 993.053 253.877 993.053 252.078C993.053 249.636 993.674 247.559 994.917 245.846C996.159 244.089 997.872 242.74 1000.06 241.798C1002.28 240.855 1004.83 240.384 1007.7 240.384C1010.23 240.384 1012.54 240.62 1014.64 241.091C1016.74 241.562 1018.65 242.183 1020.36 242.954L1018.56 247.902C1016.98 247.216 1015.24 246.638 1013.36 246.167C1011.51 245.696 1009.59 245.46 1007.57 245.46C1005.65 245.46 1004.04 245.738 1002.76 246.295C1001.47 246.852 1000.51 247.645 999.864 248.673C999.221 249.658 998.9 250.814 998.9 252.142C998.9 253.684 999.221 254.969 999.864 255.997C1000.51 257.025 1001.56 257.946 1003.01 258.76C1004.47 259.574 1006.44 260.452 1008.92 261.394C1011.62 262.379 1013.89 263.45 1015.73 264.607C1017.62 265.721 1019.03 267.07 1019.97 268.655C1020.96 270.239 1021.45 272.231 1021.45 274.63Z" fill="white"/>
</svg>
