<svg width="48" height="48" viewBox="0 0 48 48" fill="none" xmlns="http://www.w3.org/2000/svg">
<path d="M7.19995 33.4142V31.9049C8.21927 31.9049 8.92495 31.833 9.317 31.6892C9.49995 31.6239 9.63717 31.5128 9.72864 31.356C9.85933 31.1077 9.9312 30.6372 9.94427 29.9446L10.0227 28.2C10.0357 27.8341 10.0423 27.2395 10.0423 26.4162V23.8483C10.0423 22.6853 10.0031 21.2739 9.92467 19.6142C9.88546 18.7779 9.82666 18.3074 9.74825 18.2029C9.68291 18.0853 9.57183 18.0003 9.41501 17.948C9.16671 17.8566 8.42836 17.7912 7.19995 17.752V16.2426C9.57836 15.8375 11.14 15.537 11.8849 15.3409C12.6298 15.1449 13.4727 14.8313 14.4136 14.4L14.9428 14.6353V17.7912L18.5105 14.9293C18.9286 14.7594 19.2815 14.6483 19.569 14.596C19.8696 14.5307 20.2681 14.498 20.7647 14.498C22.3329 14.498 23.5156 14.7529 24.3127 15.2625C25.123 15.7591 25.7894 16.602 26.3122 17.7912L29.8798 14.9293C30.298 14.7594 30.6508 14.6483 30.9383 14.596C31.2389 14.5307 31.6375 14.498 32.134 14.498C33.4278 14.498 34.4275 14.6614 35.1332 14.9881C35.8519 15.3017 36.4465 15.733 36.917 16.2818C37.3875 16.8307 37.7207 17.4188 37.9167 18.046C38.1127 18.6733 38.2107 19.6404 38.2107 20.9472C38.2107 22.3847 38.1977 23.3387 38.1715 23.8091C38.1585 23.9659 38.1519 24.1554 38.1519 24.3776V26.4162C38.1519 28.5071 38.1846 29.8466 38.25 30.4347C38.3284 31.0097 38.4525 31.3756 38.6224 31.5324C38.8054 31.6762 39.1974 31.7676 39.7985 31.8068C40.0076 31.8199 40.3735 31.8526 40.8963 31.9049V33.4142C39.1059 33.3097 37.6292 33.2574 36.4661 33.2574C35.1463 33.2574 34.0224 33.3097 33.0946 33.4142L32.8201 33.0418L33.0554 29.4938C33.1076 28.0563 33.1338 26.8213 33.1338 25.7889V24.2992C33.1338 21.973 33.0292 20.5094 32.8201 19.9083C32.611 19.2941 32.2582 18.8171 31.7616 18.4773C31.2781 18.1245 30.6639 17.948 29.919 17.948C29.0826 17.948 28.3704 18.1637 27.7823 18.5949C27.1943 19.0131 26.8284 19.3986 26.6846 19.7514C26.5539 20.0912 26.4951 20.7838 26.5082 21.8293V26.573L26.5474 28.5333L26.5866 30.121C26.5997 30.6046 26.6454 30.9378 26.7238 31.1208C26.8022 31.3037 26.9133 31.4409 27.0571 31.5324C27.1747 31.5978 27.423 31.6566 27.8019 31.7088C28.5468 31.8003 29.0826 31.8657 29.4093 31.9049V33.4142C28.2463 33.362 26.5735 33.3358 24.3911 33.3358C21.9605 33.3358 20.1636 33.362 19.0005 33.4142V31.9049C19.2488 31.8657 19.569 31.8264 19.961 31.7872C20.536 31.748 20.8954 31.6827 21.0392 31.5912C21.196 31.4867 21.3201 31.2907 21.4116 31.0032C21.5031 30.7026 21.5488 30.0165 21.5488 28.9449L21.588 25.4753V22.6918C21.588 21.3588 21.5031 20.4179 21.3332 19.8691C21.1764 19.3071 20.8431 18.8432 20.3335 18.4773C19.8369 18.0983 19.19 17.9088 18.3928 17.9088C17.5173 17.9088 16.7789 18.131 16.1778 18.5753C15.5767 19.0196 15.1977 19.4639 15.0409 19.9083C14.9625 20.1566 14.9298 21.1824 14.9428 22.9858V26.4162C14.9428 28.1804 14.9821 29.533 15.0605 30.4739C15.0866 30.9705 15.1519 31.2841 15.2565 31.4148C15.361 31.5455 15.5375 31.6435 15.7857 31.7088C15.9687 31.7611 16.5764 31.8264 17.6088 31.9049V33.4142C16.1974 33.362 14.4985 33.3358 12.5122 33.3358C10.2775 33.3358 8.50677 33.362 7.19995 33.4142Z" fill="white"/>
<path d="M45.3818 35.2364C45.3818 36.0197 44.7468 36.6546 43.9636 36.6546C43.1804 36.6546 42.5454 36.0197 42.5454 35.2364C42.5454 34.4532 43.1804 33.8182 43.9636 33.8182C44.7468 33.8182 45.3818 34.4532 45.3818 35.2364Z" fill="#00C8FF"/>
<path d="M43.3022 37.5155C43.4996 37.6538 43.5478 37.9262 43.4061 38.1211C39.8681 42.9834 34.6293 46.3451 28.7232 47.5306C22.6744 48.7448 16.3904 47.583 11.1755 44.2863C5.96073 40.9896 2.21573 35.8114 0.717978 29.8264C-0.779775 23.8415 0.0847625 17.5097 3.13212 12.1454C6.17948 6.78107 11.1756 2.79631 17.0833 1.01829C22.991 -0.759731 29.3565 -0.194423 34.8584 2.59686C40.3604 5.38814 44.576 10.191 46.6304 16.0084C48.6362 21.6885 48.4311 27.9097 46.0662 33.4384C45.9714 33.66 45.7127 33.7581 45.4929 33.6593L44.0998 33.0332C43.88 32.9344 43.7823 32.6762 43.8767 32.4545C45.989 27.4887 46.1678 21.9059 44.3673 16.8075C42.5184 11.5719 38.7243 7.24933 33.7726 4.73717C28.8209 2.22502 23.0919 1.71624 17.775 3.31646C12.458 4.91668 7.96153 8.50297 5.21891 13.3309C2.47629 18.1587 1.6982 23.8574 3.04618 29.2438C4.39416 34.6302 7.76466 39.2907 12.458 42.2577C17.1513 45.2247 22.807 46.2703 28.2509 45.1776C33.5521 44.1135 38.2559 41.1013 41.4398 36.7442C41.5819 36.5496 41.8537 36.5013 42.0511 36.6395L43.3022 37.5155Z" fill="white"/>
</svg>
