<svg width="1024" height="952" viewBox="0 0 1024 952" fill="none" xmlns="http://www.w3.org/2000/svg">
<path d="M355.865 311.042V297.014C365.339 297.014 371.897 296.346 375.54 295.01C377.241 294.403 378.516 293.37 379.366 291.913C380.581 289.605 381.249 285.233 381.37 278.796L382.099 262.582C382.22 259.182 382.281 253.655 382.281 246.004V222.139C382.281 211.329 381.917 198.213 381.188 182.788C380.824 175.015 380.277 170.643 379.548 169.671C378.941 168.578 377.909 167.789 376.451 167.303C374.144 166.453 367.282 165.846 355.865 165.481V151.453C377.97 147.688 392.483 144.895 399.406 143.073C406.329 141.252 414.162 138.337 422.907 134.329L427.826 136.515V165.846L460.982 139.248C464.869 137.669 468.148 136.636 470.82 136.151C473.613 135.543 477.317 135.24 481.933 135.24C496.507 135.24 507.498 137.608 514.907 142.345C522.437 146.96 528.631 154.793 533.489 165.846L566.645 139.248C570.532 137.669 573.811 136.636 576.483 136.151C579.276 135.543 582.981 135.24 587.596 135.24C599.62 135.24 608.911 136.758 615.469 139.794C622.149 142.709 627.675 146.717 632.047 151.818C636.42 156.919 639.517 162.384 641.338 168.214C643.16 174.044 644.071 183.031 644.071 195.176C644.071 208.536 643.95 217.402 643.707 221.774C643.585 223.232 643.525 224.993 643.525 227.057V246.004C643.525 265.436 643.828 277.885 644.436 283.351C645.164 288.694 646.318 292.095 647.897 293.552C649.597 294.888 653.241 295.739 658.828 296.103C660.771 296.224 664.171 296.528 669.03 297.014V311.042C652.391 310.07 638.667 309.584 627.857 309.584C615.591 309.584 605.146 310.07 596.523 311.042L593.972 307.58L596.158 274.606C596.644 261.246 596.887 249.769 596.887 240.174V226.329C596.887 204.71 595.915 191.108 593.972 185.521C592.029 179.813 588.75 175.38 584.135 172.222C579.641 168.943 573.933 167.303 567.01 167.303C559.237 167.303 552.618 169.307 547.152 173.315C541.687 177.201 538.286 180.784 536.95 184.063C535.736 187.221 535.189 193.658 535.311 203.374V247.461L535.675 265.679L536.039 280.436C536.161 284.929 536.586 288.026 537.315 289.727C538.043 291.427 539.076 292.702 540.412 293.552C541.505 294.16 543.812 294.706 547.335 295.192C554.257 296.042 559.237 296.65 562.273 297.014V311.042C551.464 310.556 535.918 310.313 515.636 310.313C493.045 310.313 476.346 310.556 465.537 311.042V297.014C467.844 296.65 470.82 296.285 474.463 295.921C479.807 295.556 483.147 294.949 484.483 294.099C485.94 293.127 487.094 291.306 487.944 288.634C488.795 285.84 489.22 279.464 489.22 269.505L489.584 237.259V211.39C489.584 199.002 488.795 190.257 487.216 185.156C485.758 179.934 482.661 175.622 477.925 172.222C473.309 168.7 467.298 166.939 459.889 166.939C451.752 166.939 444.89 169.003 439.303 173.133C433.716 177.262 430.194 181.391 428.737 185.521C428.008 187.828 427.704 197.362 427.826 214.123V246.004C427.826 262.4 428.19 274.97 428.919 283.715C429.162 288.33 429.769 291.245 430.74 292.459C431.712 293.674 433.352 294.585 435.659 295.192C437.36 295.678 443.007 296.285 452.602 297.014V311.042C439.485 310.556 423.696 310.313 405.236 310.313C384.467 310.313 368.01 310.556 355.865 311.042Z" fill="black"/>
<path d="M710.717 327.976C710.717 335.255 704.816 341.156 697.537 341.156C690.257 341.156 684.356 335.255 684.356 327.976C684.356 320.697 690.257 314.796 697.537 314.796C704.816 314.796 710.717 320.697 710.717 327.976Z" fill="#00C8FF"/>
<path d="M691.389 349.158C693.224 350.443 693.672 352.975 692.354 354.786C659.474 399.975 610.786 431.218 555.896 442.236C499.68 453.52 441.278 442.722 392.813 412.084C344.348 381.445 309.543 333.32 295.623 277.698C281.703 222.076 289.738 163.23 318.06 113.375C346.381 63.5205 392.813 26.4871 447.718 9.96271C502.623 -6.56171 561.782 -1.30789 612.915 24.6335C664.049 50.5749 703.228 95.2113 722.321 149.277C740.962 202.066 739.056 259.885 717.077 311.267C716.196 313.326 713.792 314.237 711.749 313.319L698.802 307.501C696.759 306.583 695.852 304.183 696.728 302.122C716.359 255.971 718.021 204.086 701.288 156.704C684.105 108.045 648.844 67.8723 602.824 44.525C556.804 21.1777 503.56 16.4493 454.146 31.3213C404.732 46.1933 362.943 79.5233 337.454 124.392C311.964 169.261 304.733 222.223 317.261 272.283C329.789 322.343 361.113 365.656 404.732 393.23C448.35 420.805 500.912 430.523 551.507 420.367C600.774 410.478 644.491 382.483 674.08 341.99C675.402 340.181 677.928 339.732 679.762 341.017L691.389 349.158Z" fill="black"/>
<path d="M4.05542 849.647V832.875C15.3822 832.875 23.2237 832.077 27.5802 830.479C29.6132 829.753 31.1379 828.519 32.1544 826.776C33.6066 824.017 34.4053 818.789 34.5505 811.093L35.4218 791.707C35.567 787.641 35.6396 781.034 35.6396 771.885V743.35C35.6396 730.426 35.2039 714.743 34.3326 696.301C33.897 687.007 33.2435 681.78 32.3722 680.618C31.6462 679.311 30.4119 678.367 28.6693 677.786C25.9102 676.77 17.7056 676.044 4.05542 675.608V658.836C30.4845 654.334 47.8376 650.994 56.1148 648.816C64.392 646.638 73.7584 643.152 84.2138 638.36L90.095 640.974V676.044L129.739 644.242C134.385 642.354 138.306 641.119 141.501 640.539C144.841 639.813 149.27 639.449 154.788 639.449C172.214 639.449 185.356 642.281 194.214 647.945C203.217 653.463 210.623 662.829 216.432 676.044L256.075 644.242C260.722 642.354 264.643 641.119 267.838 640.539C271.178 639.813 275.607 639.449 281.125 639.449C295.501 639.449 306.61 641.265 314.451 644.895C322.438 648.38 329.045 653.172 334.273 659.271C339.501 665.37 343.204 671.905 345.382 678.875C347.56 685.846 348.649 696.591 348.649 711.113C348.649 727.086 348.504 737.687 348.214 742.915C348.069 744.657 347.996 746.763 347.996 749.232V771.885C347.996 795.119 348.359 810.004 349.085 816.539C349.956 822.928 351.336 826.994 353.224 828.737C355.257 830.334 359.613 831.35 366.293 831.786C368.616 831.931 372.682 832.294 378.491 832.875V849.647C358.597 848.486 342.187 847.905 329.263 847.905C314.597 847.905 302.108 848.486 291.798 849.647L288.748 845.509L291.362 806.083C291.943 790.11 292.234 776.387 292.234 764.915V748.36C292.234 722.512 291.072 706.248 288.748 699.568C286.425 692.743 282.504 687.443 276.986 683.667C271.613 679.747 264.788 677.786 256.511 677.786C247.217 677.786 239.303 680.182 232.768 684.974C226.234 689.621 222.168 693.905 220.57 697.826C219.118 701.601 218.465 709.298 218.61 720.915V773.628L219.046 795.41L219.481 813.053C219.626 818.426 220.135 822.129 221.006 824.162C221.877 826.195 223.112 827.72 224.709 828.737C226.016 829.463 228.775 830.116 232.986 830.697C241.263 831.713 247.217 832.44 250.847 832.875V849.647C237.923 849.067 219.336 848.776 195.085 848.776C168.075 848.776 148.108 849.067 135.184 849.647V832.875C137.943 832.44 141.501 832.004 145.857 831.568C152.247 831.133 156.24 830.407 157.838 829.39C159.58 828.228 160.96 826.05 161.976 822.855C162.993 819.515 163.501 811.892 163.501 799.984L163.937 761.43V730.499C163.937 715.687 162.993 705.232 161.105 699.133C159.362 692.888 155.659 687.733 149.996 683.667C144.478 679.456 137.29 677.35 128.432 677.35C118.702 677.35 110.498 679.819 103.818 684.756C97.1379 689.694 92.9267 694.631 91.1841 699.568C90.3128 702.327 89.9498 713.727 90.095 733.766V771.885C90.095 791.489 90.5307 806.519 91.4019 816.974C91.6924 822.492 92.4184 825.978 93.5802 827.43C94.7419 828.882 96.7023 829.971 99.4614 830.697C101.494 831.278 108.247 832.004 119.719 832.875V849.647C104.036 849.067 85.1577 848.776 63.0851 848.776C38.2534 848.776 18.5769 849.067 4.05542 849.647Z" fill="black"/>
<path d="M600.234 833.311V849.647C583.534 848.921 568.722 848.558 555.798 848.558C543.6 848.558 531.765 848.921 520.293 849.647L518.333 847.251L520.293 818.717C515.065 822.057 499.673 833.529 474.115 853.133C467.58 854.585 461.336 855.311 455.382 855.311C439.554 855.311 427.138 850.664 418.135 841.37C409.277 832.077 404.847 818.717 404.847 801.291C404.847 789.529 406.808 779.872 410.729 772.321C414.795 764.77 419.078 759.251 423.58 755.766C428.227 752.136 435.343 748.651 444.927 745.311C467.871 737.179 492.993 730.789 520.293 726.143C520.583 708.862 517.026 695.72 509.62 686.717C502.069 677.713 490.597 673.212 475.204 673.212C468.96 673.212 463.006 674.011 457.343 675.608C454.874 676.334 451.97 677.786 448.63 679.964L439.481 701.964L424.669 698.697L425.976 670.598C436.722 663.337 446.96 657.02 456.689 651.647C466.418 646.275 473.243 643.007 477.164 641.846C482.537 640.248 490.088 639.449 499.818 639.449C515.646 639.449 528.643 641.773 538.808 646.42C549.118 650.921 556.669 656.294 561.461 662.539C566.399 668.783 569.739 675.463 571.481 682.578C573.369 689.694 574.313 698.697 574.313 709.588C574.313 714.235 573.95 726.36 573.224 745.964C572.788 759.034 572.57 769.707 572.57 777.984C572.57 803.832 573.296 819.515 574.748 825.034C575.329 827.647 576.491 829.39 578.234 830.261C580.557 831.423 587.89 832.44 600.234 833.311ZM520.293 744.44C507.95 747.053 496.623 750.248 486.313 754.024C476.148 757.654 469.105 762.228 465.184 767.746C461.263 773.119 459.303 779.945 459.303 788.222C459.303 797.515 461.626 804.704 466.273 809.786C471.065 814.869 477.31 817.41 485.006 817.41C491.541 817.41 498.075 815.522 504.61 811.746C511.29 807.971 516.517 803.179 520.293 797.37V744.44Z" fill="black"/>
<path d="M745.956 832.222V849.647C727.805 848.486 708.854 847.905 689.105 847.905C669.356 847.905 647.138 848.486 622.451 849.647V832.44C636.247 832.004 644.597 831.423 647.501 830.697C649.679 830.116 651.276 829.317 652.293 828.301C653.455 827.139 654.253 825.397 654.689 823.073C655.706 818.717 656.432 804.994 656.867 781.905C657.303 758.816 657.521 738.341 657.521 720.479V648.598C657.521 625.799 657.012 604.961 655.996 586.083C655.415 575.918 654.689 569.892 653.818 568.004C653.237 566.987 652.438 566.189 651.422 565.608C649.679 564.446 646.92 563.575 643.144 562.994C640.966 562.704 634.432 562.341 623.541 561.905V545.786C641.547 543.898 655.923 541.865 666.669 539.687C677.415 537.364 691.864 533.37 710.016 527.707L714.59 530.321L712.847 574.321C712.121 599.007 711.686 629.284 711.541 665.152V720.915C711.541 741.971 711.686 757.727 711.976 768.182C712.557 794.176 712.993 809.931 713.283 815.449C713.574 820.822 714.082 824.235 714.808 825.687C715.243 826.704 715.97 827.575 716.986 828.301C718.293 829.317 720.544 830.116 723.739 830.697C725.045 830.987 732.451 831.496 745.956 832.222Z" fill="black"/>
<path d="M770.57 674.954V658.4C783.059 657.674 795.62 656.004 808.253 653.39C820.887 650.776 837.078 646.129 856.828 639.449L859.877 641.846C857.844 670.598 856.828 697.172 856.828 721.568V745.964C856.828 766.73 857.336 780.598 858.352 787.568C859.805 796.717 863.29 803.614 868.808 808.261C874.326 812.908 881.659 815.232 890.808 815.232C901.263 815.232 910.049 812.545 917.164 807.172C924.28 801.654 929.217 795.991 931.976 790.182C933.719 786.407 934.59 778.565 934.59 766.657V729.41L934.154 698.479C934.154 688.459 933.501 682.433 932.194 680.4C931.468 679.093 930.016 678.077 927.838 677.35C925.659 676.624 916.801 675.826 901.263 674.954V658.4C923.772 655.496 939.092 653.172 947.224 651.43C955.356 649.687 969.151 645.694 988.61 639.449L992.748 641.846L990.352 681.925C989.191 710.387 988.61 726.288 988.61 729.628V774.281C988.61 800.855 989.263 817.265 990.57 823.509C991.151 826.123 992.24 827.938 993.838 828.954C996.597 830.407 1005.53 831.496 1020.63 832.222V849.647L975.758 848.558L934.59 849.647L933.065 847.905L934.372 831.133C934.517 828.374 934.59 822.783 934.59 814.36C928.927 818.862 923.989 823.001 919.778 826.776L895.164 850.083C885.144 853.713 875.052 855.529 864.887 855.529C845.283 855.529 829.89 850.156 818.709 839.41C807.527 828.664 801.937 814.36 801.937 796.499C801.937 794.321 802.154 786.261 802.59 772.321C802.735 764.915 802.808 755.331 802.808 743.568L802.372 697.608C802.372 689.185 801.791 683.958 800.63 681.925C799.613 679.892 797.871 678.367 795.402 677.35C792.933 676.334 784.656 675.535 770.57 674.954Z" fill="black"/>
<path d="M53.0205 950.02H14.1855V880.526H53.0205V888.215H22.9453V909.919H51.2685V917.511H22.9453V942.331H53.0205V950.02Z" fill="black"/>
<path d="M203.169 950.02H192.949L155.769 892.303H155.38C155.445 893.471 155.509 894.768 155.574 896.196C155.704 897.623 155.801 899.181 155.866 900.868C155.931 902.49 155.996 904.177 156.061 905.929C156.126 907.681 156.158 909.433 156.158 911.185V950.02H148.08V880.526H158.202L195.285 938.048H195.675C195.61 937.269 195.545 936.199 195.48 934.836C195.415 933.409 195.35 931.851 195.285 930.164C195.22 928.412 195.155 926.628 195.091 924.811C195.026 922.994 194.993 921.307 194.993 919.75V880.526H203.169V950.02Z" fill="black"/>
<path d="M349.045 950.02H339.117L320.722 919.847L302.034 950.02H292.788L315.855 913.813L294.248 880.526H303.981L321.014 907.778L338.144 880.526H347.39L325.88 913.618L349.045 950.02Z" fill="black"/>
<path d="M497.416 915.175C497.416 920.561 496.735 925.46 495.372 929.872C494.01 934.22 491.966 937.983 489.241 941.163C486.58 944.342 483.239 946.775 479.216 948.462C475.257 950.149 470.65 950.993 465.395 950.993C459.944 950.993 455.207 950.149 451.184 948.462C447.161 946.71 443.82 944.277 441.159 941.163C438.499 937.983 436.52 934.187 435.222 929.775C433.924 925.363 433.276 920.464 433.276 915.078C433.276 907.94 434.443 901.711 436.779 896.39C439.115 891.07 442.652 886.917 447.388 883.932C452.19 880.947 458.225 879.455 465.492 879.455C472.435 879.455 478.275 880.947 483.011 883.932C487.748 886.852 491.317 891.005 493.718 896.39C496.184 901.711 497.416 907.973 497.416 915.175ZM442.522 915.175C442.522 921.015 443.333 926.044 444.955 930.262C446.577 934.479 449.076 937.724 452.45 939.995C455.889 942.266 460.204 943.401 465.395 943.401C470.65 943.401 474.933 942.266 478.242 939.995C481.616 937.724 484.115 934.479 485.737 930.262C487.359 926.044 488.17 921.015 488.17 915.175C488.17 906.415 486.353 899.57 482.72 894.638C479.086 889.642 473.343 887.144 465.492 887.144C460.236 887.144 455.889 888.28 452.45 890.551C449.076 892.757 446.577 895.969 444.955 900.186C443.333 904.339 442.522 909.335 442.522 915.175Z" fill="black"/>
<path d="M640.637 880.526L615.818 950.02H607.058L582.239 880.526H591.388L607.058 925.103C607.772 926.985 608.388 928.802 608.907 930.554C609.426 932.305 609.881 933.993 610.27 935.615C610.724 937.172 611.113 938.729 611.438 940.287C611.762 938.729 612.119 937.14 612.508 935.517C612.963 933.895 613.449 932.208 613.968 930.456C614.552 928.704 615.169 926.855 615.818 924.908L631.391 880.526H640.637Z" fill="black"/>
<path d="M769.558 950.02L761.188 928.51H733.643L725.37 950.02H716.513L743.668 880.234H751.552L778.61 950.02H769.558ZM750.773 899.7C750.579 899.181 750.254 898.24 749.8 896.877C749.346 895.514 748.892 894.119 748.438 892.692C748.048 891.199 747.724 890.064 747.464 889.285C747.14 890.583 746.783 891.913 746.394 893.276C746.069 894.574 745.712 895.774 745.323 896.877C744.999 897.98 744.707 898.921 744.447 899.7L736.563 920.723H758.56L750.773 899.7Z" fill="black"/>
<path d="M887.491 950.02H862.38V944.958L870.556 943.109V887.533L862.38 885.587V880.526H887.491V885.587L879.315 887.533V943.109L887.491 944.958V950.02Z" fill="black"/>
<path d="M1020.14 931.429C1020.14 935.582 1019.13 939.119 1017.12 942.039C1015.11 944.894 1012.22 947.1 1008.46 948.657C1004.76 950.214 1000.38 950.993 995.321 950.993C992.725 950.993 990.227 950.863 987.826 950.604C985.49 950.344 983.349 949.987 981.402 949.533C979.456 949.014 977.736 948.397 976.244 947.684V939.313C978.58 940.351 981.467 941.292 984.906 942.136C988.41 942.979 992.011 943.401 995.71 943.401C999.149 943.401 1002.04 942.947 1004.37 942.039C1006.71 941.13 1008.46 939.832 1009.63 938.145C1010.8 936.458 1011.38 934.479 1011.38 932.208C1011.38 929.937 1010.89 928.023 1009.92 926.466C1008.95 924.908 1007.26 923.481 1004.86 922.183C1002.52 920.82 999.246 919.393 995.029 917.901C992.044 916.797 989.416 915.629 987.145 914.397C984.939 913.099 983.09 911.639 981.597 910.017C980.105 908.395 978.969 906.545 978.191 904.469C977.477 902.392 977.12 899.992 977.12 897.266C977.12 893.568 978.061 890.421 979.942 887.825C981.824 885.165 984.42 883.121 987.729 881.694C991.103 880.266 994.964 879.552 999.311 879.552C1003.14 879.552 1006.64 879.909 1009.82 880.623C1013 881.337 1015.89 882.277 1018.49 883.445L1015.76 890.94C1013.36 889.902 1010.73 889.026 1007.88 888.312C1005.09 887.598 1002.17 887.241 999.117 887.241C996.197 887.241 993.763 887.663 991.817 888.507C989.87 889.35 988.41 890.551 987.437 892.108C986.464 893.6 985.977 895.352 985.977 897.364C985.977 899.7 986.464 901.646 987.437 903.204C988.41 904.761 990 906.156 992.206 907.389C994.412 908.622 997.397 909.952 1001.16 911.379C1005.25 912.872 1008.69 914.494 1011.48 916.246C1014.33 917.933 1016.47 919.977 1017.9 922.378C1019.39 924.779 1020.14 927.796 1020.14 931.429Z" fill="black"/>
</svg>
